<svg xmlns="http://www.w3.org/2000/svg" width="17.875" height="18" viewBox="0 0 17.875 18">
  <metadata><?xpacket begin="﻿" id="W5M0MpCehiHzreSzNTczkc9d"?>
<x:xmpmeta xmlns:x="adobe:ns:meta/" x:xmptk="Adobe XMP Core 5.6-c142 79.160924, 2017/07/13-01:06:39        ">
   <rdf:RDF xmlns:rdf="http://www.w3.org/1999/02/22-rdf-syntax-ns#">
      <rdf:Description rdf:about=""/>
   </rdf:RDF>
</x:xmpmeta>
                                                                                                    
                                                                                                    
                                                                                                    
                                                                                                    
                                                                                                    
                                                                                                    
                                                                                                    
                                                                                                    
                                                                                                    
                                                                                                    
                                                                                                    
                                                                                                    
                                                                                                    
                                                                                                    
                                                                                                    
                                                                                                    
                                                                                                    
                                                                                                    
                                                                                                    
                                                                                                    
                           
<?xpacket end="w"?></metadata>
<defs>
    <style>
      .cls-1 {
        fill: #2e2e2e;
        fill-rule: evenodd;
      }
    </style>
  </defs>
  <path id="Instagram" class="cls-1" d="M683.557,130H669.924a2.131,2.131,0,0,0-2.126,2.135v13.73A2.131,2.131,0,0,0,669.924,148h13.633a2.131,2.131,0,0,0,2.126-2.135v-13.73A2.131,2.131,0,0,0,683.557,130Zm-3.335,2.554a0.5,0.5,0,0,1,.5-0.5h2.418a0.5,0.5,0,0,1,.5.5v2.428a0.5,0.5,0,0,1-.5.5h-2.418a0.5,0.5,0,0,1-.5-0.5v-2.428Zm-3.461,3.014a3.453,3.453,0,1,1-3.439,3.453A3.446,3.446,0,0,1,676.761,135.568Zm6.921,9.836a0.5,0.5,0,0,1-.5.5H670.341a0.5,0.5,0,0,1-.5-0.5v-7.827h1.673a5.441,5.441,0,1,0,10.494,0h1.674V145.4Z" transform="translate(-667.813 -130)"/>
</svg>
