<svg xmlns="http://www.w3.org/2000/svg" width="47.406" height="17.094" viewBox="0 0 47.406 17.094">
  <metadata><?xpacket begin="﻿" id="W5M0MpCehiHzreSzNTczkc9d"?>
<x:xmpmeta xmlns:x="adobe:ns:meta/" x:xmptk="Adobe XMP Core 5.6-c142 79.160924, 2017/07/13-01:06:39        ">
   <rdf:RDF xmlns:rdf="http://www.w3.org/1999/02/22-rdf-syntax-ns#">
      <rdf:Description rdf:about=""/>
   </rdf:RDF>
</x:xmpmeta>
                                                                                                    
                                                                                                    
                                                                                                    
                                                                                                    
                                                                                                    
                                                                                                    
                                                                                                    
                                                                                                    
                                                                                                    
                                                                                                    
                                                                                                    
                                                                                                    
                                                                                                    
                                                                                                    
                                                                                                    
                                                                                                    
                                                                                                    
                                                                                                    
                                                                                                    
                                                                                                    
                           
<?xpacket end="w"?></metadata>
<defs>
    <style>
      .cls-1 {
        fill: #2e2e2e;
        fill-rule: evenodd;
      }
    </style>
  </defs>
  <path id="YouTube" class="cls-1" d="M790.232,135.73a2.061,2.061,0,0,0-.683,0,2.143,2.143,0,0,0-1.738,1.5s-0.078.538-.078,0.771v3.855a2.732,2.732,0,0,0,.387,1.236,1.994,1.994,0,0,0,1.529.908,3.792,3.792,0,0,0,.57-0.011,1.964,1.964,0,0,0,1.457-.9,2.732,2.732,0,0,0,.387-1.236v-3.855c0-.233-0.076-0.771-0.076-0.771a2.146,2.146,0,0,0-1.755-1.507m0.362,2.278v3.855a0.685,0.685,0,0,1-.7.849,0.728,0.728,0,0,1-.773-0.849v-3.855c0-1.081.773-1,.773-1,0.773,0,.7,1,0.7,1m-5.722-.771-1.16-4.243h-1.7l2.089,6.478v4.4h1.546v-4.4l2.01-6.478h-1.624Zm11.214-1.467v6.248a1.361,1.361,0,0,1-.851.694c-0.542,0-.464-0.385-0.464-0.385V135.77H793.3v7.019a1.081,1.081,0,0,0,1.161,1.234,2.877,2.877,0,0,0,1.625-1v0.925h1.468V135.77h-1.468Zm30.577-4.409c-1.791-.312-3.82-0.235-10.287-0.312-4.367,0-6.561.077-6.86,0.077-2.809.158-4.757-.231-5.459,2.8a33.624,33.624,0,0,0-.468,5.556c0.155,3.62-.154,7.97,3.35,8.285,1.8,0.157,6.474.231,9.556,0.231a82.726,82.726,0,0,0,10.329-.392,2.97,2.97,0,0,0,1.481-1.163c0.913-1.22.93-3.058,1.012-7-0.155-3.345.077-7.7-2.654-8.086m-15.511,3.887h-1.791v9.412h-1.642v-9.412h-1.714v-1.632h5.147a11.544,11.544,0,0,1,0,1.632m4.6,9.489h-1.482V143.8a2.614,2.614,0,0,1-1.636,1.015c-0.856,0-1.172-.547-1.172-1.555v-6.765h1.482v6.61a0.335,0.335,0,0,0,.393.309,1.322,1.322,0,0,0,.933-0.7v-6.219h1.482v8.243Zm5.694-1.478s-0.16,1.555-1.1,1.555a2.235,2.235,0,0,1-1.79-.932v0.855h-1.482V133.693h1.482v3.578a2.632,2.632,0,0,1,1.481-.934,1.368,1.368,0,0,1,1.4,1.477v5.445Zm5.611,0c-0.232,1.4-1.952,1.555-1.952,1.555a2.249,2.249,0,0,1-2.415-2.333v-3.889a3.184,3.184,0,0,1,.154-0.778c0.161-.466.316-1.4,2.184-1.4a2.049,2.049,0,0,1,2.106,2.178v2.258H824.17v1.631a0.835,0.835,0,0,0,.857.932c0.625,0,.625-0.932.625-0.932v-0.623h1.481a4.682,4.682,0,0,1-.077,1.4m-1.4-4.667a0.887,0.887,0,0,0-.7-0.855,0.871,0.871,0,0,0-.78.855V139.6h1.482v-1.011Zm-6.313-.855a1.119,1.119,0,0,0-.7.312V143.1a0.967,0.967,0,0,0,.7.309,0.666,0.666,0,0,0,.625-0.7v-4.121a0.7,0.7,0,0,0-.625-0.855" transform="translate(-782 -130.906)"/>
</svg>
